
<svg width="28" height="26" viewBox="0 0 28 26" fill="none" xmlns="http://www.w3.org/2000/svg">
<g clip-path="url(#clip0)">
<path d="M27.9726 7.64407C27.907 6.26259 27.6664 5.31284 27.3218 4.48986C26.9662 3.61629 26.4193 2.83419 25.7026 2.18402C25.0024 1.52374 24.1546 1.01067 23.2248 0.685681C22.3333 0.365657 21.3159 0.142255 19.8281 0.0813452C18.3293 0.015277 17.8534 0 14.0519 0C10.2504 0 9.77457 0.015277 8.28126 0.0761868C6.79352 0.137097 5.77071 0.360697 4.88464 0.680523C3.94366 1.01067 3.10139 1.51858 2.40121 2.18402C1.69014 2.83419 1.13782 3.62145 0.787619 4.4849C0.442978 5.31284 0.202392 6.25743 0.136797 7.63892C0.0656465 9.03071 0.0491943 9.47256 0.0491943 13.0025C0.0491943 16.5325 0.0656465 16.9744 0.131242 18.361C0.196837 19.7425 0.437637 20.6922 0.782278 21.5152C1.13782 22.3888 1.69014 23.1709 2.40121 23.8211C3.10139 24.4814 3.94921 24.9944 4.87908 25.3194C5.77071 25.6394 6.78796 25.8628 8.27592 25.9237C9.76901 25.9848 10.2451 25.9999 14.0466 25.9999C17.8481 25.9999 18.3239 25.9848 19.8172 25.9237C21.305 25.8628 22.3278 25.6394 23.2139 25.3194C25.0956 24.6438 26.5833 23.2624 27.3109 21.5152C27.6553 20.6873 27.8961 19.7425 27.9617 18.361C28.0273 16.9744 28.0437 16.5325 28.0437 13.0025C28.0437 9.47256 28.0382 9.03071 27.9726 7.64407ZM25.4511 18.2594C25.3909 19.5292 25.1612 20.2149 24.9698 20.672C24.4993 21.8047 23.5311 22.7037 22.3113 23.1405C21.8191 23.3183 21.0753 23.5316 19.7132 23.5873C18.2363 23.6485 17.7934 23.6635 14.0575 23.6635C10.3215 23.6635 9.87307 23.6485 8.40156 23.5873C7.0341 23.5316 6.29568 23.3183 5.8034 23.1405C5.19637 22.9322 4.64384 22.6021 4.19536 22.1704C3.73042 21.7487 3.37488 21.2408 3.15054 20.6772C2.95909 20.2201 2.7294 19.5292 2.66936 18.2646C2.60355 16.8932 2.58732 16.4817 2.58732 13.0127C2.58732 9.54358 2.60355 9.12714 2.66936 7.76093C2.7294 6.49115 2.95909 5.80547 3.15054 5.34835C3.37488 4.78449 3.73042 4.27162 4.20091 3.85497C4.65474 3.42325 5.20172 3.0931 5.80895 2.88498C6.30123 2.70721 7.04521 2.49393 8.40711 2.43798C9.88396 2.37707 10.3271 2.36179 14.0628 2.36179C17.8043 2.36179 18.2472 2.37707 19.7187 2.43798C21.0862 2.49393 21.8246 2.70721 22.3169 2.88498C22.9239 3.0931 23.4764 3.42325 23.9249 3.85497C24.3899 4.27658 24.7454 4.78449 24.9698 5.34835C25.1612 5.80547 25.3909 6.49611 25.4511 7.76093C25.5167 9.13229 25.5332 9.54358 25.5332 13.0127C25.5332 16.4817 25.5167 16.8881 25.4511 18.2594Z" fill="#E1E45C"/>
<path d="M14.0519 6.32349C10.081 6.32349 6.85913 9.31501 6.85913 13.0025C6.85913 16.69 10.081 19.6816 14.0519 19.6816C18.0231 19.6816 21.2447 16.69 21.2447 13.0025C21.2447 9.31501 18.0231 6.32349 14.0519 6.32349ZM14.0519 17.335C11.4758 17.335 9.38614 15.3949 9.38614 13.0025C9.38614 10.6102 11.4758 8.67 14.0519 8.67C16.6283 8.67 18.7177 10.6102 18.7177 13.0025C18.7177 15.3949 16.6283 17.335 14.0519 17.335Z" fill="#E1E45C"/>
<path d="M23.2085 6.05949C23.2085 6.92056 22.4566 7.61875 21.5291 7.61875C20.6018 7.61875 19.8499 6.92056 19.8499 6.05949C19.8499 5.19823 20.6018 4.50024 21.5291 4.50024C22.4566 4.50024 23.2085 5.19823 23.2085 6.05949Z" fill="#E1E45C"/>
</g>
<defs>
<clipPath id="clip0">
<rect width="28" height="26" fill="white"/>
</clipPath>
</defs>
</svg>
