
<svg width="28" height="26" viewBox="0 0 28 26" fill="none" xmlns="http://www.w3.org/2000/svg">
<g clip-path="url(#clip0)">
<path d="M5.7055 17.283C8.46721 20.3485 11.7917 22.7621 15.5861 24.47C17.0308 25.1057 18.9629 25.8599 21.1154 25.9892C21.2488 25.9946 21.3765 26 21.5099 26C22.9546 26 24.115 25.5367 25.0607 24.5831C25.0665 24.5777 25.0781 24.5669 25.0839 24.5562C25.4204 24.179 25.8033 23.8396 26.2036 23.4787C26.4763 23.2362 26.7548 22.983 27.0217 22.7244C28.2575 21.5284 28.2575 20.0091 27.0101 18.8508L23.5232 15.6129C22.9314 15.0419 22.2235 14.7402 21.4809 14.7402C20.7382 14.7402 20.0246 15.0419 19.4154 15.6075L17.3383 17.5363C17.1469 17.4339 16.9496 17.3423 16.7639 17.2561C16.5319 17.1484 16.3172 17.046 16.1257 16.9329C14.2343 15.8177 12.5169 14.363 10.875 12.4936C10.0453 11.5184 9.48835 10.6995 9.09962 9.86448C9.645 9.40655 10.1556 8.92706 10.6487 8.45835C10.8228 8.29134 11.0026 8.12433 11.1825 7.95731C11.8091 7.37547 12.1456 6.70203 12.1456 6.01782C12.1456 5.33361 11.8149 4.66017 11.1825 4.07833L9.45353 2.47286C9.25047 2.28429 9.059 2.10112 8.86174 1.91256C8.47881 1.54621 8.07848 1.16908 7.68395 0.829673C7.08636 0.285537 6.38433 0 5.64168 0C4.90484 0 4.19701 0.285537 3.5762 0.83506L1.40629 2.84998C0.617231 3.58268 0.170484 4.47161 0.0776533 5.50062C-0.0325829 6.78823 0.222701 8.15665 0.884118 9.81061C1.89945 12.3697 3.43116 14.7455 5.7055 17.283ZM1.49332 5.61376C1.56294 4.89722 1.85884 4.29921 2.41582 3.78201L4.57413 1.77787C4.91064 1.47617 5.28196 1.31993 5.64168 1.31993C5.9956 1.31993 6.35532 1.47617 6.68602 1.78864C7.07475 2.12267 7.44027 2.47286 7.8348 2.84459C8.03207 3.03315 8.23513 3.22172 8.4382 3.41567L10.1672 5.02114C10.5269 5.35516 10.7125 5.69457 10.7125 6.02859C10.7125 6.36262 10.5269 6.70203 10.1672 7.03605C9.98731 7.20307 9.80745 7.37547 9.62759 7.54248C9.08801 8.0489 8.58325 8.52839 8.02627 8.98632C8.01466 8.9971 8.00886 9.00249 7.99726 9.01326C7.5157 9.46042 7.59112 9.88603 7.70716 10.2093C7.71296 10.2254 7.71876 10.2362 7.72457 10.2524C8.17131 11.2491 8.79212 12.1973 9.76103 13.3286C11.5016 15.322 13.335 16.8682 15.3541 18.0588C15.6036 18.2097 15.8704 18.3282 16.1199 18.4467C16.352 18.5545 16.5667 18.6569 16.7581 18.77C16.7813 18.7808 16.7987 18.7915 16.822 18.8023C17.0134 18.8939 17.1991 18.937 17.3847 18.937C17.8489 18.937 18.1506 18.6622 18.2492 18.5707L20.4191 16.5557C20.7556 16.2433 21.1212 16.0763 21.4809 16.0763C21.9218 16.0763 22.2815 16.3295 22.5078 16.5557L26.0064 19.799C26.7026 20.4455 26.6968 21.1459 25.989 21.8301C25.7453 22.0725 25.49 22.3042 25.2173 22.5466C24.8112 22.913 24.3876 23.2901 24.0047 23.7157C23.3375 24.3838 22.5426 24.6962 21.5157 24.6962C21.4171 24.6962 21.3126 24.6908 21.214 24.6855C19.311 24.5723 17.5414 23.8827 16.2128 23.2955C12.604 21.6738 9.43613 19.3734 6.80786 16.4534C4.64375 14.0344 3.18748 11.7824 2.22436 9.36883C1.62676 7.88728 1.40049 6.69664 1.49332 5.61376Z" fill="#E1E45C"/>
</g>
<defs>
<clipPath id="clip0">
<rect width="28" height="26" fill="white"/>
</clipPath>
</defs>
</svg>
