
<svg width="28" height="26" viewBox="0 0 28 26" fill="none" xmlns="http://www.w3.org/2000/svg">
<path fill-rule="evenodd" clip-rule="evenodd" d="M23.2854 4.34209C20.8296 2.05902 17.5636 0.801144 14.0841 0.799805C6.91439 0.799805 1.07928 6.21797 1.07639 12.8774C1.07543 15.0062 1.67432 17.0842 2.81267 18.9159L0.967285 25.1748L7.86288 23.4952C9.7629 24.4576 11.902 24.9647 14.0788 24.9653H14.0843C21.2532 24.9653 27.089 19.5467 27.0917 12.887C27.0931 9.65954 25.7414 6.62502 23.2854 4.34209ZM14.0841 22.9255H14.0796C12.1397 22.9248 10.2371 22.4406 8.57697 21.5261L8.18235 21.3085L4.0904 22.3053L5.1826 18.6007L4.92545 18.2208C3.84319 16.6224 3.27169 14.775 3.27265 12.8781C3.2749 7.343 8.12499 2.83978 14.0884 2.83978C16.9762 2.84067 19.6908 3.88625 21.7319 5.78385C23.7731 7.68146 24.8965 10.2038 24.8956 12.8863C24.893 18.4218 20.0432 22.9255 14.0841 22.9255ZM20.0144 15.4067C19.6895 15.2555 18.0915 14.5256 17.7935 14.4247C17.4958 14.324 17.2789 14.2739 17.0624 14.5759C16.8456 14.8779 16.2229 15.5578 16.0332 15.7591C15.8435 15.9605 15.6541 15.9858 15.329 15.8347C15.0039 15.6837 13.9567 15.3648 12.7152 14.3367C11.7491 13.5364 11.0969 12.5481 10.9072 12.2461C10.7178 11.9438 10.9056 11.7962 11.0498 11.6302C11.4016 11.2245 11.7539 10.7991 11.8622 10.5979C11.9707 10.3964 11.9164 10.2201 11.835 10.0691C11.7539 9.91811 11.1039 8.43261 10.8331 7.82815C10.5691 7.2399 10.3014 7.31934 10.1018 7.31012C9.91238 7.30134 9.69561 7.29956 9.47883 7.29956C9.26222 7.29956 8.91006 7.37498 8.61205 7.67729C8.31421 7.97945 7.47467 8.70948 7.47467 10.195C7.47467 11.6805 8.63929 13.1155 8.80175 13.317C8.96421 13.5184 11.0937 16.5668 14.3539 17.8739C15.1294 18.1851 15.7347 18.3707 16.2068 18.5098C16.9855 18.7395 17.6938 18.707 18.2539 18.6294C18.8785 18.5426 20.1767 17.8992 20.4478 17.1943C20.7186 16.4893 20.7186 15.8851 20.6372 15.7591C20.5561 15.6332 20.3393 15.5578 20.0144 15.4067Z" fill="#E1E45C"/>
</svg>
